<svg xmlns="http://www.w3.org/2000/svg" xmlns:xlink="http://www.w3.org/1999/xlink" width="70" zoomAndPan="magnify" viewBox="0 0 52.5 30.000001" height="40" preserveAspectRatio="xMidYMid meet" version="1.0"><defs><g/><clipPath id="id1"><path d="M 0.605469 0 L 51.410156 0 L 51.410156 29.03125 L 0.605469 29.03125 Z M 0.605469 0 " clip-rule="nonzero"/></clipPath></defs><g clip-path="url(#id1)"><path fill="#ffffff" d="M 0.605469 0 L 51.894531 0 L 51.894531 36.636719 L 0.605469 36.636719 Z M 0.605469 0 " fill-opacity="1" fill-rule="nonzero"/><path fill="#ffffff" d="M 0.605469 0 L 51.894531 0 L 51.894531 29.308594 L 0.605469 29.308594 Z M 0.605469 0 " fill-opacity="1" fill-rule="nonzero"/><path fill="#ffffff" d="M 0.605469 0 L 51.894531 0 L 51.894531 29.308594 L 0.605469 29.308594 Z M 0.605469 0 " fill-opacity="1" fill-rule="nonzero"/><path fill="#ffffff" d="M 0.605469 0 L 51.894531 0 L 51.894531 29.308594 L 0.605469 29.308594 Z M 0.605469 0 " fill-opacity="1" fill-rule="nonzero"/></g><g fill="#f7931a" fill-opacity="1"><g transform="translate(16.351407, 16.612835)"><g><path d="M 1.09375 -3.15625 C 0.925781 -3.15625 0.789062 -3.203125 0.6875 -3.296875 C 0.59375 -3.390625 0.546875 -3.515625 0.546875 -3.671875 C 0.546875 -3.828125 0.59375 -3.953125 0.6875 -4.046875 C 0.789062 -4.148438 0.925781 -4.203125 1.09375 -4.203125 C 1.25 -4.203125 1.378906 -4.148438 1.484375 -4.046875 C 1.585938 -3.953125 1.640625 -3.828125 1.640625 -3.671875 C 1.640625 -3.515625 1.585938 -3.390625 1.484375 -3.296875 C 1.378906 -3.203125 1.25 -3.15625 1.09375 -3.15625 Z M 0.125 -0.125 C 0.238281 -0.164062 0.382812 -0.210938 0.5625 -0.265625 L 0.5625 -2.625 C 0.488281 -2.644531 0.359375 -2.6875 0.171875 -2.75 L 0.171875 -2.828125 L 1.703125 -2.984375 L 1.703125 -0.265625 C 1.796875 -0.242188 1.945312 -0.195312 2.15625 -0.125 L 2.15625 0 L 0.125 0 Z M 0.125 -0.125 "/></g></g></g><g fill="#f7931a" fill-opacity="1"><g transform="translate(18.631067, 16.612835)"><g><path d="M 2.453125 -0.078125 C 2.210938 0.015625 1.910156 0.0625 1.546875 0.0625 C 0.765625 0.0625 0.375 -0.226562 0.375 -0.8125 L 0.375 -2.59375 L -0.03125 -2.59375 L -0.03125 -2.921875 L 0.375 -2.921875 C 0.695312 -3.015625 0.890625 -3.28125 0.953125 -3.71875 L 1.515625 -3.71875 L 1.515625 -2.921875 L 2.34375 -2.921875 L 2.34375 -2.59375 L 1.515625 -2.59375 L 1.515625 -0.8125 C 1.515625 -0.601562 1.554688 -0.46875 1.640625 -0.40625 C 1.734375 -0.34375 1.859375 -0.3125 2.015625 -0.3125 C 2.148438 -0.3125 2.273438 -0.332031 2.390625 -0.375 Z M 2.453125 -0.078125 "/></g></g></g><g fill="#f7931a" fill-opacity="1"><g transform="translate(21.204499, 16.612835)"><g><path d="M 1.921875 0.0625 C 1.554688 0.0625 1.242188 0 0.984375 -0.125 C 0.722656 -0.25 0.519531 -0.425781 0.375 -0.65625 C 0.238281 -0.882812 0.171875 -1.148438 0.171875 -1.453125 C 0.171875 -1.773438 0.242188 -2.050781 0.390625 -2.28125 C 0.546875 -2.507812 0.757812 -2.679688 1.03125 -2.796875 C 1.300781 -2.921875 1.613281 -2.984375 1.96875 -2.984375 C 2.476562 -2.984375 2.910156 -2.832031 3.265625 -2.53125 L 3.203125 -1.765625 L 2.96875 -1.765625 C 2.9375 -1.835938 2.910156 -1.929688 2.890625 -2.046875 C 2.878906 -2.171875 2.875 -2.285156 2.875 -2.390625 C 2.769531 -2.472656 2.664062 -2.535156 2.5625 -2.578125 C 2.46875 -2.617188 2.359375 -2.640625 2.234375 -2.640625 C 1.972656 -2.640625 1.753906 -2.539062 1.578125 -2.34375 C 1.410156 -2.15625 1.328125 -1.863281 1.328125 -1.46875 C 1.328125 -1.132812 1.394531 -0.847656 1.53125 -0.609375 C 1.675781 -0.378906 1.894531 -0.265625 2.1875 -0.265625 C 2.34375 -0.265625 2.515625 -0.289062 2.703125 -0.34375 C 2.890625 -0.40625 3.050781 -0.492188 3.1875 -0.609375 L 3.296875 -0.359375 C 3.148438 -0.242188 2.957031 -0.144531 2.71875 -0.0625 C 2.476562 0.0195312 2.210938 0.0625 1.921875 0.0625 Z M 1.921875 0.0625 "/></g></g></g><g fill="#f7931a" fill-opacity="1"><g transform="translate(24.618109, 16.612835)"><g><path d="M 1.9375 0.0625 C 1.34375 0.0625 0.890625 -0.0664062 0.578125 -0.328125 C 0.273438 -0.597656 0.125 -0.972656 0.125 -1.453125 C 0.125 -1.929688 0.273438 -2.304688 0.578125 -2.578125 C 0.890625 -2.847656 1.34375 -2.984375 1.9375 -2.984375 C 2.53125 -2.984375 2.984375 -2.847656 3.296875 -2.578125 C 3.609375 -2.304688 3.765625 -1.929688 3.765625 -1.453125 C 3.765625 -0.972656 3.609375 -0.597656 3.296875 -0.328125 C 2.984375 -0.0664062 2.53125 0.0625 1.9375 0.0625 Z M 1.9375 -0.28125 C 2.144531 -0.28125 2.304688 -0.382812 2.421875 -0.59375 C 2.546875 -0.800781 2.609375 -1.085938 2.609375 -1.453125 C 2.609375 -1.828125 2.546875 -2.117188 2.421875 -2.328125 C 2.304688 -2.535156 2.144531 -2.640625 1.9375 -2.640625 C 1.738281 -2.640625 1.578125 -2.535156 1.453125 -2.328125 C 1.328125 -2.117188 1.265625 -1.828125 1.265625 -1.453125 C 1.265625 -1.085938 1.328125 -0.800781 1.453125 -0.59375 C 1.578125 -0.382812 1.738281 -0.28125 1.9375 -0.28125 Z M 1.9375 -0.28125 "/></g></g></g><g fill="#f7931a" fill-opacity="1"><g transform="translate(28.495881, 16.612835)"><g><path d="M 1.09375 -3.15625 C 0.925781 -3.15625 0.789062 -3.203125 0.6875 -3.296875 C 0.59375 -3.390625 0.546875 -3.515625 0.546875 -3.671875 C 0.546875 -3.828125 0.59375 -3.953125 0.6875 -4.046875 C 0.789062 -4.148438 0.925781 -4.203125 1.09375 -4.203125 C 1.25 -4.203125 1.378906 -4.148438 1.484375 -4.046875 C 1.585938 -3.953125 1.640625 -3.828125 1.640625 -3.671875 C 1.640625 -3.515625 1.585938 -3.390625 1.484375 -3.296875 C 1.378906 -3.203125 1.25 -3.15625 1.09375 -3.15625 Z M 0.125 -0.125 C 0.238281 -0.164062 0.382812 -0.210938 0.5625 -0.265625 L 0.5625 -2.625 C 0.488281 -2.644531 0.359375 -2.6875 0.171875 -2.75 L 0.171875 -2.828125 L 1.703125 -2.984375 L 1.703125 -0.265625 C 1.796875 -0.242188 1.945312 -0.195312 2.15625 -0.125 L 2.15625 0 L 0.125 0 Z M 0.125 -0.125 "/></g></g></g><g fill="#f7931a" fill-opacity="1"><g transform="translate(30.775541, 16.612835)"><g><path d="M 3.90625 -0.265625 C 4.09375 -0.222656 4.242188 -0.175781 4.359375 -0.125 L 4.359375 0 L 2.375 0 L 2.375 -0.125 C 2.40625 -0.144531 2.460938 -0.171875 2.546875 -0.203125 C 2.628906 -0.234375 2.703125 -0.253906 2.765625 -0.265625 L 2.765625 -2.125 C 2.765625 -2.320312 2.722656 -2.457031 2.640625 -2.53125 C 2.566406 -2.601562 2.460938 -2.640625 2.328125 -2.640625 C 2.234375 -2.640625 2.132812 -2.613281 2.03125 -2.5625 C 1.925781 -2.507812 1.816406 -2.421875 1.703125 -2.296875 L 1.703125 -0.265625 C 1.804688 -0.242188 1.957031 -0.195312 2.15625 -0.125 L 2.15625 0 L 0.125 0 L 0.125 -0.125 C 0.289062 -0.195312 0.4375 -0.242188 0.5625 -0.265625 L 0.5625 -2.65625 C 0.488281 -2.664062 0.359375 -2.703125 0.171875 -2.765625 L 0.171875 -2.859375 L 1.703125 -3 L 1.703125 -2.609375 C 1.835938 -2.722656 1.992188 -2.8125 2.171875 -2.875 C 2.347656 -2.945312 2.535156 -2.984375 2.734375 -2.984375 C 3.078125 -2.984375 3.359375 -2.910156 3.578125 -2.765625 C 3.796875 -2.617188 3.90625 -2.410156 3.90625 -2.140625 Z M 3.90625 -0.265625 "/></g></g></g><g fill="#f7931a" fill-opacity="1"><g transform="translate(35.246727, 16.612835)"><g/></g></g><g fill="#f7931a" fill-opacity="1"><g transform="translate(36.80371, 16.612835)"><g><path d="M 1.921875 0.0625 C 1.554688 0.0625 1.242188 0 0.984375 -0.125 C 0.722656 -0.25 0.519531 -0.425781 0.375 -0.65625 C 0.238281 -0.882812 0.171875 -1.148438 0.171875 -1.453125 C 0.171875 -1.773438 0.242188 -2.050781 0.390625 -2.28125 C 0.546875 -2.507812 0.757812 -2.679688 1.03125 -2.796875 C 1.300781 -2.921875 1.613281 -2.984375 1.96875 -2.984375 C 2.476562 -2.984375 2.910156 -2.832031 3.265625 -2.53125 L 3.203125 -1.765625 L 2.96875 -1.765625 C 2.9375 -1.835938 2.910156 -1.929688 2.890625 -2.046875 C 2.878906 -2.171875 2.875 -2.285156 2.875 -2.390625 C 2.769531 -2.472656 2.664062 -2.535156 2.5625 -2.578125 C 2.46875 -2.617188 2.359375 -2.640625 2.234375 -2.640625 C 1.972656 -2.640625 1.753906 -2.539062 1.578125 -2.34375 C 1.410156 -2.15625 1.328125 -1.863281 1.328125 -1.46875 C 1.328125 -1.132812 1.394531 -0.847656 1.53125 -0.609375 C 1.675781 -0.378906 1.894531 -0.265625 2.1875 -0.265625 C 2.34375 -0.265625 2.515625 -0.289062 2.703125 -0.34375 C 2.890625 -0.40625 3.050781 -0.492188 3.1875 -0.609375 L 3.296875 -0.359375 C 3.148438 -0.242188 2.957031 -0.144531 2.71875 -0.0625 C 2.476562 0.0195312 2.210938 0.0625 1.921875 0.0625 Z M 1.921875 0.0625 "/></g></g></g><g fill="#f7931a" fill-opacity="1"><g transform="translate(40.217321, 16.612835)"><g><path d="M 1.09375 -3.15625 C 0.925781 -3.15625 0.789062 -3.203125 0.6875 -3.296875 C 0.59375 -3.390625 0.546875 -3.515625 0.546875 -3.671875 C 0.546875 -3.828125 0.59375 -3.953125 0.6875 -4.046875 C 0.789062 -4.148438 0.925781 -4.203125 1.09375 -4.203125 C 1.25 -4.203125 1.378906 -4.148438 1.484375 -4.046875 C 1.585938 -3.953125 1.640625 -3.828125 1.640625 -3.671875 C 1.640625 -3.515625 1.585938 -3.390625 1.484375 -3.296875 C 1.378906 -3.203125 1.25 -3.15625 1.09375 -3.15625 Z M 0.125 -0.125 C 0.238281 -0.164062 0.382812 -0.210938 0.5625 -0.265625 L 0.5625 -2.625 C 0.488281 -2.644531 0.359375 -2.6875 0.171875 -2.75 L 0.171875 -2.828125 L 1.703125 -2.984375 L 1.703125 -0.265625 C 1.796875 -0.242188 1.945312 -0.195312 2.15625 -0.125 L 2.15625 0 L 0.125 0 Z M 0.125 -0.125 "/></g></g></g><g fill="#f7931a" fill-opacity="1"><g transform="translate(42.496981, 16.612835)"><g><path d="M 2.453125 -0.078125 C 2.210938 0.015625 1.910156 0.0625 1.546875 0.0625 C 0.765625 0.0625 0.375 -0.226562 0.375 -0.8125 L 0.375 -2.59375 L -0.03125 -2.59375 L -0.03125 -2.921875 L 0.375 -2.921875 C 0.695312 -3.015625 0.890625 -3.28125 0.953125 -3.71875 L 1.515625 -3.71875 L 1.515625 -2.921875 L 2.34375 -2.921875 L 2.34375 -2.59375 L 1.515625 -2.59375 L 1.515625 -0.8125 C 1.515625 -0.601562 1.554688 -0.46875 1.640625 -0.40625 C 1.734375 -0.34375 1.859375 -0.3125 2.015625 -0.3125 C 2.148438 -0.3125 2.273438 -0.332031 2.390625 -0.375 Z M 2.453125 -0.078125 "/></g></g></g><g fill="#f7931a" fill-opacity="1"><g transform="translate(45.070413, 16.612835)"><g><path d="M 3.828125 -2.921875 L 3.828125 -2.8125 C 3.628906 -2.738281 3.492188 -2.691406 3.421875 -2.671875 L 2.1875 0.359375 C 2.070312 0.640625 1.9375 0.835938 1.78125 0.953125 C 1.625 1.078125 1.421875 1.140625 1.171875 1.140625 C 0.941406 1.140625 0.691406 1.066406 0.421875 0.921875 L 0.59375 0.453125 C 0.726562 0.492188 0.84375 0.53125 0.9375 0.5625 C 1.03125 0.59375 1.117188 0.609375 1.203125 0.609375 C 1.304688 0.609375 1.394531 0.578125 1.46875 0.515625 C 1.539062 0.453125 1.617188 0.316406 1.703125 0.109375 L 1.765625 -0.015625 L 0.40625 -2.671875 C 0.25 -2.710938 0.125 -2.757812 0.03125 -2.8125 L 0.03125 -2.921875 L 1.96875 -2.921875 L 1.96875 -2.796875 C 1.882812 -2.765625 1.71875 -2.726562 1.46875 -2.6875 L 2.203125 -1.109375 L 2.859375 -2.71875 C 2.710938 -2.75 2.609375 -2.773438 2.546875 -2.796875 L 2.546875 -2.921875 Z M 3.828125 -2.921875 "/></g></g></g><g fill="#f7931a" fill-opacity="1"><g transform="translate(4.554772, 20.162536)"><g><path d="M 0.25 -0.375 C 0.96875 -0.65625 1.4375 -0.816406 1.65625 -0.859375 L 1.65625 -11.53125 C 1.375 -11.570312 0.90625 -11.707031 0.25 -11.9375 L 0.25 -12.34375 L 6.46875 -12.34375 C 8.09375 -12.34375 9.253906 -12.101562 9.953125 -11.625 C 10.648438 -11.144531 11 -10.429688 11 -9.484375 C 11 -8.816406 10.8125 -8.222656 10.4375 -7.703125 C 10.0625 -7.191406 9.507812 -6.820312 8.78125 -6.59375 L 8.78125 -6.46875 C 9.695312 -6.226562 10.378906 -5.820312 10.828125 -5.25 C 11.285156 -4.6875 11.515625 -4.09375 11.515625 -3.46875 C 11.515625 -2.3125 11.164062 -1.441406 10.46875 -0.859375 C 9.769531 -0.285156 8.617188 0 7.015625 0 L 0.25 0 Z M 5.90625 -7 C 6.40625 -7 6.785156 -7.203125 7.046875 -7.609375 C 7.316406 -8.015625 7.453125 -8.566406 7.453125 -9.265625 C 7.453125 -9.972656 7.332031 -10.488281 7.09375 -10.8125 C 6.863281 -11.132812 6.488281 -11.296875 5.96875 -11.296875 L 5.1875 -11.296875 L 5.1875 -7 Z M 6.5 -1.046875 C 7.488281 -1.046875 7.984375 -1.894531 7.984375 -3.59375 C 7.984375 -4.382812 7.835938 -4.976562 7.546875 -5.375 C 7.253906 -5.769531 6.832031 -5.96875 6.28125 -5.96875 L 5.1875 -5.96875 L 5.1875 -1.046875 Z M 6.5 -1.046875 "/></g></g></g></svg>